<?xml version="1.0" encoding="UTF-8" standalone="no"?>
<!-- Created with Inkscape (http://www.inkscape.org/) -->
<svg
   xmlns:dc="http://purl.org/dc/elements/1.1/"
   xmlns:cc="http://creativecommons.org/ns#"
   xmlns:rdf="http://www.w3.org/1999/02/22-rdf-syntax-ns#"
   xmlns:svg="http://www.w3.org/2000/svg"
   xmlns="http://www.w3.org/2000/svg"
   xmlns:sodipodi="http://sodipodi.sourceforge.net/DTD/sodipodi-0.dtd"
   xmlns:inkscape="http://www.inkscape.org/namespaces/inkscape"
   width="744.09448819"
   height="1052.3622047"
   id="svg6127"
   sodipodi:version="0.32"
   inkscape:version="0.46"
   sodipodi:docname="csclugLogo.svg"
   inkscape:output_extension="org.inkscape.output.svg.inkscape">
  <defs
     id="defs6129">
    <inkscape:perspective
       sodipodi:type="inkscape:persp3d"
       inkscape:vp_x="0 : 526.18109 : 1"
       inkscape:vp_y="0 : 1000 : 0"
       inkscape:vp_z="744.09448 : 526.18109 : 1"
       inkscape:persp3d-origin="372.04724 : 350.78739 : 1"
       id="perspective6135" />
  </defs>
  <sodipodi:namedview
     id="base"
     pagecolor="#ffffff"
     bordercolor="#666666"
     borderopacity="1.0"
     gridtolerance="10000"
     guidetolerance="10"
     objecttolerance="10"
     inkscape:pageopacity="0.0"
     inkscape:pageshadow="2"
     inkscape:zoom="0.35"
     inkscape:cx="375"
     inkscape:cy="520"
     inkscape:document-units="px"
     inkscape:current-layer="layer1"
     showgrid="false"
     inkscape:window-width="640"
     inkscape:window-height="713"
     inkscape:window-x="0"
     inkscape:window-y="26" />
  <metadata
     id="metadata6132">
    <rdf:RDF>
      <cc:Work
         rdf:about="">
        <dc:format>image/svg+xml</dc:format>
        <dc:type
           rdf:resource="http://purl.org/dc/dcmitype/StillImage" />
      </cc:Work>
    </rdf:RDF>
  </metadata>
  <g
     inkscape:label="Layer 1"
     inkscape:groupmode="layer"
     id="layer1">
    <g
       id="g3731"
       transform="translate(-40,188.57143)">
			<g
   id="g3733">
				<g
   id="g3735">
					<path
   d="M 507.915,272.577 C 500.012,240.485 488.444,211.978 477.801,180.585 C 474.726,171.513 467.967,156.936 469.488,148.522 C 470.656,142.013 480.675,132.448 485.638,127.844 C 491.722,122.185 501.319,116.425 509.899,114.512 C 522.746,111.647 537.675,114.395 548.388,111.158 C 533.85,104.205 515.209,100.572 497.784,99.446 C 490.9,99.002 481.208,100.905 476.252,99.603 C 472.567,98.637 467.393,91.093 464.078,88.798 C 454.274,81.998 440.452,78.893 423.196,78.485 C 398.345,77.902 379.566,88.268 370.104,101.683 C 362.479,112.509 358.46,126.001 353.745,139.403 C 352.203,143.777 351.742,149.114 349.474,152.985 C 347.075,157.071 339.413,161.441 335.988,165.6 C 324.661,179.341 317.704,198.621 312.267,217.29 C 308.549,230.065 305.352,243.882 303.047,257.656 C 300.781,271.229 297.808,284.325 296.395,298.054 C 294.633,315.166 294.389,334.257 293.652,353.415 C 292.676,378.53 334.936,459.037 348.701,460.207 C 354.457,460.696 361.636,463.407 366.603,463.414 C 376.799,463.427 386.254,458.746 396.385,459.525 C 403.176,460.045 411.456,468.125 420.368,468.347 C 425.698,468.482 431.965,465.433 438.874,464.743 C 450.392,463.597 465.776,464.786 478.33,465.663 C 484.927,466.125 493.425,466.269 495.789,463.325 C 500.002,458.094 494.092,449.846 492.937,445.818 C 494.935,442.634 502.636,441.738 503.3,437 C 503.903,432.647 497.344,425.42 494.261,421.546 C 489.375,415.4 484.764,409.909 484.249,402.672 C 483.533,392.67 489.42,380.263 492.86,369.969 C 503.06,339.442 516.76,308.498 507.915,272.577 z"
   id="path3737"
   style="fill:#e0dede" />

				</g>

			</g>

			<g
   id="g3739">
				<path
   d="M 348.36,436.185 L 396.113,120.463 L 424.134,120.463 L 471.887,436.185 L 445.84,436.185 L 410.32,163.875 L 374.407,436.185 L 348.36,436.185 z"
   id="path3741" />

			</g>

			<g
   id="g3743">
				<line
   x1="400.14899"
   y1="140.177"
   x2="196.058"
   y2="518.57098"
   id="line3745"
   style="fill:none;stroke:#000000;stroke-width:4" />

				<line
   x1="397.724"
   y1="155.50999"
   x2="212.463"
   y2="510.20901"
   id="line3747"
   style="fill:none;stroke:#0e0e0e;stroke-width:3.66669989" />

				<line
   x1="395.29901"
   y1="170.843"
   x2="228.868"
   y2="501.84698"
   id="line3749"
   style="fill:none;stroke:#1c1c1c;stroke-width:3.33330011" />

				<line
   x1="392.875"
   y1="186.175"
   x2="245.27299"
   y2="493.48401"
   id="line3751"
   style="fill:none;stroke:#2b2b2b;stroke-width:3" />

				<line
   x1="390.45001"
   y1="201.508"
   x2="261.67801"
   y2="485.12201"
   id="line3753"
   style="fill:none;stroke:#393939;stroke-width:2.66669989" />

				<line
   x1="388.02399"
   y1="216.841"
   x2="278.08301"
   y2="476.76001"
   id="line3755"
   style="fill:none;stroke:#474747;stroke-width:2.33330011" />

				<line
   x1="385.60001"
   y1="232.174"
   x2="294.48901"
   y2="468.397"
   id="line3757"
   style="fill:none;stroke:#555555;stroke-width:2" />

				<line
   x1="383.17499"
   y1="247.506"
   x2="310.89401"
   y2="460.035"
   id="line3759"
   style="fill:none;stroke:#636363;stroke-width:1.66670001" />

				<line
   x1="380.75"
   y1="262.83899"
   x2="327.29901"
   y2="451.673"
   id="line3761"
   style="fill:none;stroke:#717171;stroke-width:1.33329999" />

				<line
   x1="378.32501"
   y1="278.172"
   x2="343.70401"
   y2="443.311"
   id="line3763"
   style="fill:none;stroke:#808080" />

			</g>

			<g
   id="g3765">
				<line
   x1="421.83801"
   y1="140.177"
   x2="625.92999"
   y2="518.57098"
   id="line3767"
   style="fill:none;stroke:#000000;stroke-width:4" />

				<line
   x1="424.26401"
   y1="155.50999"
   x2="609.52399"
   y2="510.20901"
   id="line3769"
   style="fill:none;stroke:#0e0e0e;stroke-width:3.66669989" />

				<line
   x1="426.68799"
   y1="170.843"
   x2="593.12"
   y2="501.84698"
   id="line3771"
   style="fill:none;stroke:#1c1c1c;stroke-width:3.33330011" />

				<line
   x1="429.11301"
   y1="186.175"
   x2="576.71503"
   y2="493.48401"
   id="line3773"
   style="fill:none;stroke:#2b2b2b;stroke-width:3" />

				<line
   x1="431.53799"
   y1="201.508"
   x2="560.31"
   y2="485.12201"
   id="line3775"
   style="fill:none;stroke:#393939;stroke-width:2.66669989" />

				<line
   x1="433.96301"
   y1="216.841"
   x2="543.90503"
   y2="476.76001"
   id="line3777"
   style="fill:none;stroke:#474747;stroke-width:2.33330011" />

				<line
   x1="436.38901"
   y1="232.174"
   x2="527.5"
   y2="468.397"
   id="line3779"
   style="fill:none;stroke:#555555;stroke-width:2" />

				<line
   x1="438.81299"
   y1="247.506"
   x2="511.095"
   y2="460.035"
   id="line3781"
   style="fill:none;stroke:#636363;stroke-width:1.66670001" />

				<line
   x1="441.23801"
   y1="262.83899"
   x2="494.69"
   y2="451.673"
   id="line3783"
   style="fill:none;stroke:#717171;stroke-width:1.33329999" />

				<line
   x1="443.66299"
   y1="278.172"
   x2="478.285"
   y2="443.311"
   id="line3785"
   style="fill:none;stroke:#808080" />

			</g>

			<g
   id="g3787">
				<path
   d="M 312.318,494.185 L 307.786,497.596 C 305.334,494.34 302.376,491.862 298.913,490.161 C 295.451,488.462 291.637,487.592 287.475,487.553 C 282.923,487.511 278.699,488.565 274.799,490.714 C 270.901,492.863 267.867,495.771 265.7,499.436 C 263.532,503.102 262.427,507.236 262.385,511.837 C 262.32,518.794 264.652,524.62 269.38,529.32 C 274.108,534.019 280.104,536.401 287.371,536.469 C 295.362,536.543 302.075,533.477 307.511,527.268 L 311.98,530.723 C 309.101,534.318 305.525,537.083 301.254,539.021 C 296.981,540.96 292.22,541.906 286.971,541.857 C 276.989,541.765 269.146,538.37 263.441,531.669 C 258.657,526.014 256.303,519.216 256.377,511.277 C 256.454,502.925 259.448,495.924 265.357,490.277 C 271.268,484.63 278.631,481.846 287.449,481.928 C 292.775,481.977 297.576,483.074 301.849,485.222 C 306.122,487.372 309.612,490.357 312.318,494.185 z"
   id="path3789" />

				<path
   d="M 317.532,530.076 L 322.408,527.214 C 325.763,533.528 329.678,536.707 334.151,536.749 C 336.065,536.767 337.866,536.336 339.556,535.46 C 341.245,534.584 342.536,533.399 343.43,531.907 C 344.323,530.416 344.777,528.83 344.793,527.149 C 344.811,525.235 344.181,523.354 342.905,521.505 C 341.144,518.953 337.914,515.872 333.215,512.26 C 328.49,508.622 325.554,505.996 324.405,504.383 C 322.413,501.675 321.431,498.755 321.46,495.626 C 321.483,493.143 322.098,490.888 323.307,488.855 C 324.515,486.822 326.205,485.229 328.375,484.071 C 330.544,482.916 332.896,482.348 335.431,482.373 C 338.12,482.396 340.628,483.086 342.957,484.439 C 345.284,485.793 347.737,488.266 350.316,491.859 L 345.629,495.346 C 343.509,492.481 341.697,490.588 340.192,489.669 C 338.689,488.75 337.043,488.282 335.259,488.266 C 332.957,488.245 331.07,488.926 329.596,490.308 C 328.122,491.691 327.376,493.405 327.357,495.448 C 327.346,496.689 327.592,497.893 328.1,499.063 C 328.606,500.23 329.538,501.505 330.896,502.889 C 331.639,503.62 334.077,505.544 338.213,508.66 C 343.118,512.35 346.475,515.627 348.285,518.49 C 350.094,521.349 350.986,524.217 350.96,527.087 C 350.921,531.225 349.317,534.806 346.147,537.827 C 342.978,540.848 339.142,542.339 334.642,542.298 C 331.177,542.265 328.044,541.311 325.243,539.438 C 322.44,537.564 319.871,534.442 317.532,530.076 z"
   id="path3791" />

				<path
   d="M 416.465,495.15 L 411.934,498.561 C 409.482,495.304 406.522,492.827 403.061,491.126 C 399.599,489.426 395.785,488.557 391.621,488.518 C 387.07,488.476 382.845,489.53 378.947,491.678 C 375.048,493.828 372.015,496.735 369.848,500.402 C 367.681,504.067 366.574,508.201 366.531,512.802 C 366.467,519.758 368.8,525.586 373.527,530.285 C 378.255,534.983 384.252,537.366 391.519,537.434 C 399.51,537.508 406.222,534.441 411.66,528.233 L 416.127,531.688 C 413.249,535.283 409.675,538.048 405.402,539.986 C 401.131,541.924 396.369,542.871 391.119,542.821 C 381.138,542.729 373.295,539.335 367.591,532.633 C 362.806,526.978 360.452,520.18 360.526,512.241 C 360.603,503.888 363.597,496.888 369.507,491.241 C 375.416,485.593 382.78,482.81 391.597,482.892 C 396.924,482.941 401.726,484.038 405.997,486.186 C 410.269,488.337 413.759,491.323 416.465,495.15 z"
   id="path3793" />

				<path
   d="M 428.005,484.666 L 433.707,484.719 L 433.229,536.27 L 455.183,536.474 L 455.131,541.981 L 427.475,541.724 L 428.005,484.666 z"
   id="path3795" />

				<path
   d="M 464.893,485.008 L 470.596,485.061 L 470.277,519.505 C 470.239,523.591 470.292,526.14 470.437,527.15 C 470.702,529.402 471.342,531.291 472.364,532.813 C 473.385,534.334 474.963,535.617 477.1,536.659 C 479.236,537.7 481.391,538.23 483.563,538.251 C 485.45,538.269 487.265,537.885 489.005,537.1 C 490.744,536.314 492.202,535.215 493.379,533.803 C 494.556,532.392 495.426,530.68 495.987,528.668 C 496.388,527.224 496.609,524.251 496.651,519.751 L 496.97,485.307 L 502.673,485.36 L 502.354,519.804 C 502.306,524.899 501.769,529.013 500.745,532.146 C 499.721,535.279 497.705,537.995 494.696,540.294 C 491.687,542.592 488.062,543.723 483.822,543.684 C 479.218,543.641 475.285,542.504 472.022,540.278 C 468.758,538.05 466.586,535.12 465.509,531.489 C 464.831,529.26 464.52,525.248 464.572,519.454 L 464.893,485.008 z"
   id="path3797" />

				<path
   d="M 571.665,495.58 L 567.205,499.729 C 564.054,496.57 560.592,494.166 556.817,492.513 C 553.044,490.863 549.361,490.02 545.766,489.986 C 541.291,489.945 537.021,491.007 532.954,493.166 C 528.887,495.326 525.724,498.277 523.466,502.019 C 521.206,505.762 520.059,509.728 520.018,513.915 C 519.98,518.209 521.092,522.298 523.358,526.185 C 525.624,530.073 528.776,533.142 532.815,535.39 C 536.853,537.639 541.292,538.785 546.128,538.829 C 551.996,538.884 556.978,537.275 561.069,534.003 C 565.159,530.732 567.603,526.46 568.402,521.191 L 550.211,521.022 L 550.263,515.514 L 574.854,515.742 C 574.721,524.56 572.037,531.538 566.805,536.675 C 561.573,541.812 554.611,544.339 545.923,544.259 C 535.373,544.16 527.052,540.49 520.965,533.243 C 516.285,527.665 513.977,521.244 514.044,513.976 C 514.095,508.573 515.499,503.555 518.258,498.925 C 521.018,494.296 524.773,490.69 529.529,488.109 C 534.286,485.529 539.651,484.267 545.625,484.322 C 550.46,484.366 555.004,485.282 559.254,487.066 C 563.506,488.853 567.641,491.69 571.665,495.58 z"
   id="path3799" />

			</g>

		</g>
  </g>
</svg>
